<svg width="174" height="59" viewBox="0 0 174 59" fill="none" xmlns="http://www.w3.org/2000/svg">
<circle cx="29.4989" cy="29.4841" r="28.9833" stroke="white" stroke-dasharray="1.79 1.79"/>
<path d="M58.7155 26.8276C58.8296 27.4085 58.9068 27.9973 58.9455 28.5929L58.4465 28.6253C58.465 28.9099 58.4743 29.1961 58.4743 29.4838C58.4743 29.7715 58.465 30.0577 58.4465 30.3422L58.9455 30.3746C58.9068 30.9702 58.8296 31.559 58.7155 32.14L58.2248 32.0435C58.1146 32.6047 57.9685 33.1586 57.788 33.7043L58.2627 33.8613C58.0773 34.422 57.857 34.9739 57.6035 35.5157L57.1506 35.3037C56.9093 35.8195 56.6366 36.3265 56.3337 36.8238L56.7607 37.0839C56.4556 37.5849 56.1212 38.0756 55.759 38.5552L55.36 38.2538C55.016 38.7093 54.6457 39.1549 54.2503 39.5898L54.6203 39.9262C54.2265 40.3594 53.809 40.7816 53.3689 41.192L53.0279 40.8264C52.6089 41.2171 52.1687 41.5973 51.7082 41.9662L52.0207 42.3564C51.5634 42.7227 51.087 43.0777 50.5925 43.4206L50.3075 43.0098C49.8347 43.3377 49.3446 43.6547 48.8383 43.96L49.0965 44.3882C48.5944 44.691 48.0769 44.9823 47.5449 45.2616L47.3125 44.8189C46.8005 45.0877 46.2746 45.3452 45.7356 45.591L45.943 46.0459C45.4092 46.2893 44.863 46.5212 44.3052 46.741L44.1219 46.2758C43.5828 46.4883 43.0325 46.6894 42.4717 46.8787L42.6316 47.3524C42.0739 47.5407 41.5061 47.7174 40.9289 47.8819L40.7918 47.4011C40.2339 47.5602 39.6671 47.7079 39.0918 47.8437L39.2067 48.3303C38.6339 48.4656 38.0529 48.5892 37.4646 48.7008L37.3714 48.2096C36.7995 48.3181 36.2205 48.415 35.6348 48.5001L35.7067 48.9949C35.1232 49.0797 34.5333 49.1527 33.9376 49.2137L33.8866 48.7163C33.3076 48.7756 32.7229 48.8234 32.133 48.8592L32.1634 49.3583C31.5751 49.3941 30.9818 49.4182 30.384 49.4302L30.3739 48.9303C30.0807 48.9362 29.7864 48.9392 29.4911 48.9392C29.1957 48.9392 28.9014 48.9362 28.6082 48.9303L28.5982 49.4302C28.0004 49.4182 27.4071 49.3941 26.8188 49.3583L26.8491 48.8592C26.2593 48.8234 25.6746 48.7756 25.0955 48.7163L25.0446 49.2137C24.4489 49.1527 23.859 49.0797 23.2755 48.9949L23.3473 48.5001C22.7617 48.415 22.1826 48.3181 21.6108 48.2096L21.5176 48.7008C20.9292 48.5892 20.3483 48.4656 19.7754 48.3303L19.8903 47.8437C19.3151 47.7079 18.7482 47.5602 18.1904 47.4011L18.0533 47.8819C17.4761 47.7174 16.9083 47.5407 16.3505 47.3524L16.5104 46.8787C15.9496 46.6894 15.3994 46.4883 14.8603 46.2758L14.6769 46.741C14.1191 46.5212 13.5729 46.2893 13.0392 46.0459L13.2466 45.591C12.7076 45.3452 12.1817 45.0877 11.6697 44.8189L11.4373 45.2616C10.9053 44.9823 10.3878 44.691 9.88564 44.3882L10.1438 43.96C9.63753 43.6547 9.14748 43.3377 8.67464 43.0098L8.3897 43.4206C7.89516 43.0777 7.41871 42.7227 6.96142 42.3564L7.27399 41.9662C6.81349 41.5973 6.37324 41.2171 5.95428 40.8264L5.61326 41.192C5.17317 40.7816 4.75562 40.3594 4.36184 39.9262L4.73182 39.5898C4.33649 39.1549 3.96621 38.7093 3.62215 38.2538L3.22318 38.5552C2.86097 38.0756 2.52659 37.5849 2.22146 37.0839L2.6485 36.8238C2.34561 36.3265 2.07285 35.8195 1.83153 35.3037L1.37866 35.5157C1.12513 34.9739 0.90484 34.422 0.719419 33.8613L1.19414 33.7043C1.01369 33.1586 0.867598 32.6047 0.757328 32.0436L0.266711 32.14C0.152556 31.559 0.0753252 30.9702 0.0366667 30.3746L0.535617 30.3422C0.517146 30.0577 0.507812 29.7715 0.507812 29.4838C0.507812 29.1961 0.517146 28.9099 0.535617 28.6253L0.0366667 28.5929C0.0753252 27.9973 0.152556 27.4085 0.26671 26.8276L0.757327 26.924C0.867598 26.3628 1.01369 25.8089 1.19414 25.2632L0.719418 25.1062C0.904839 24.5455 1.12513 23.9937 1.37866 23.4519L1.83153 23.6638C2.07285 23.1481 2.34561 22.6411 2.64849 22.1437L2.22146 21.8837C2.52659 21.3827 2.86097 20.8919 3.22318 20.4124L3.62215 20.7138C3.96621 20.2583 4.33649 19.8126 4.73182 19.3777L4.36184 19.0414C4.75562 18.6082 5.17317 18.186 5.61326 17.7755L5.95428 18.1412C6.37324 17.7504 6.81349 17.3702 7.27399 17.0014L6.96141 16.6111C7.41871 16.2448 7.89516 15.8899 8.3897 15.5469L8.67463 15.9578C9.14748 15.6298 9.63752 15.3129 10.1438 15.0076L9.88564 14.5794C10.3878 14.2766 10.9053 13.9852 11.4373 13.706L11.6697 14.1487C12.1817 13.8799 12.7076 13.6223 13.2466 13.3766L13.0391 12.9216C13.5729 12.6783 14.1191 12.4464 14.6769 12.2265L14.8603 12.6917C15.3994 12.4793 15.9496 12.2781 16.5104 12.0888L16.3505 11.6151C16.9083 11.4268 17.4761 11.2502 18.0533 11.0856L18.1904 11.5664C18.7482 11.4074 19.3151 11.2597 19.8903 11.1239L19.7754 10.6372C20.3483 10.502 20.9292 10.3783 21.5176 10.2667L21.6108 10.7579C22.1826 10.6495 22.7617 10.5525 23.3473 10.4674L23.2755 9.97263C23.859 9.88789 24.4489 9.81483 25.0446 9.75383L25.0955 10.2512C25.6746 10.1919 26.2593 10.1442 26.8491 10.1083L26.8188 9.60924C27.4071 9.57347 28.0004 9.54939 28.5982 9.53736L28.6082 10.0373C28.9014 10.0314 29.1957 10.0284 29.4911 10.0284C29.7864 10.0284 30.0807 10.0314 30.3739 10.0373L30.384 9.53736C30.9818 9.54939 31.5751 9.57347 32.1634 9.60924L32.133 10.1083C32.7229 10.1442 33.3076 10.1919 33.8866 10.2512L33.9376 9.75383C34.5333 9.81483 35.1232 9.88789 35.7067 9.97263L35.6348 10.4674C36.2205 10.5525 36.7995 10.6495 37.3714 10.7579L37.4646 10.2667C38.0529 10.3783 38.6339 10.502 39.2067 10.6372L39.0918 11.1239C39.667 11.2597 40.2339 11.4074 40.7918 11.5664L40.9289 11.0856C41.5061 11.2502 42.0739 11.4268 42.6316 11.6151L42.4717 12.0888C43.0325 12.2781 43.5828 12.4793 44.1219 12.6917L44.3052 12.2265C44.863 12.4464 45.4092 12.6783 45.943 12.9216L45.7356 13.3766C46.2746 13.6223 46.8005 13.8799 47.3125 14.1487L47.5448 13.706C48.0769 13.9852 48.5944 14.2766 49.0965 14.5794L48.8383 15.0076C49.3446 15.3129 49.8347 15.6298 50.3075 15.9578L50.5925 15.5469C51.087 15.8899 51.5634 16.2448 52.0207 16.6111L51.7082 17.0014C52.1687 17.3702 52.6089 17.7504 53.0279 18.1412L53.3689 17.7755C53.809 18.186 54.2265 18.6082 54.6203 19.0414L54.2503 19.3777C54.6457 19.8126 55.016 20.2583 55.36 20.7138L55.759 20.4124C56.1212 20.8919 56.4556 21.3827 56.7607 21.8837L56.3337 22.1437C56.6366 22.6411 56.9093 23.1481 57.1506 23.6638L57.6035 23.4519C57.857 23.9937 58.0773 24.5455 58.2627 25.1062L57.788 25.2632C57.9685 25.8089 58.1146 26.3628 58.2248 26.924L58.7155 26.8276Z" stroke="white" stroke-dasharray="1.79 1.79"/>
<path d="M57.7435 27.2145C58.2449 27.6673 58.6 28.1371 58.7941 28.6198L58.3302 28.8063C58.4221 29.0348 58.4665 29.2596 58.4665 29.4826C58.4665 29.7057 58.4221 29.9304 58.3302 30.159L58.7941 30.3455C58.6 30.8282 58.2449 31.298 57.7435 31.7508L57.4084 31.3797C57.0473 31.7058 56.5953 32.03 56.0538 32.3484L56.3072 32.7794C55.8359 33.0565 55.307 33.325 54.7246 33.5839L54.5216 33.127C54.0256 33.3474 53.4879 33.5616 52.9108 33.7685L53.0795 34.2392C52.5491 34.4293 51.9877 34.6128 51.3974 34.7892L51.2542 34.3101C50.7173 34.4705 50.1554 34.6251 49.5699 34.7734L49.6927 35.2581C49.1374 35.3988 48.5618 35.5337 47.9672 35.6626L47.8613 35.174C47.304 35.2948 46.7296 35.4102 46.1391 35.5201L46.2305 36.0116C45.6628 36.1172 45.0807 36.2176 44.485 36.3125L44.4064 35.8187C43.8386 35.9092 43.2584 35.9947 42.6664 36.0749L42.7336 36.5704C42.1571 36.6485 41.5698 36.7217 40.9724 36.7898L40.9158 36.293C40.3421 36.3584 39.7589 36.419 39.1669 36.4747L39.2137 36.9725C38.6336 37.027 38.0452 37.0768 37.4492 37.1217L37.4116 36.6231C36.8322 36.6668 36.2454 36.7058 35.6518 36.7399L35.6806 37.2391C35.0967 37.2727 34.5064 37.3017 33.9103 37.3258L33.89 36.8262C33.3086 36.8498 32.7216 36.8687 32.1295 36.883L32.1415 37.3828C31.5561 37.3969 30.9658 37.4064 30.3711 37.4111L30.3671 36.9111C30.0736 36.9134 29.7789 36.9146 29.4833 36.9146C29.1876 36.9146 28.893 36.9134 28.5994 36.9111L28.5954 37.4111C28.0007 37.4064 27.4104 37.3969 26.825 37.3828L26.837 36.883C26.2449 36.8687 25.6579 36.8498 25.0765 36.8262L25.0563 37.3258C24.4601 37.3017 23.8698 37.2727 23.286 37.2391L23.3147 36.7399C22.7212 36.7058 22.1344 36.6668 21.5549 36.6231L21.5173 37.1217C20.9213 37.0768 20.333 37.027 19.7529 36.9725L19.7997 36.4747C19.2077 36.419 18.6245 36.3584 18.0507 36.293L17.9941 36.7898C17.3967 36.7217 16.8094 36.6485 16.233 36.5704L16.3001 36.0749C15.7082 35.9947 15.1279 35.9092 14.5602 35.8187L14.4815 36.3125C13.8859 36.2176 13.3037 36.1172 12.736 36.0116L12.8275 35.5201C12.237 35.4102 11.6625 35.2948 11.1053 35.174L10.9993 35.6626C10.4048 35.5337 9.82917 35.3988 9.27386 35.2581L9.39666 34.7734C8.81117 34.6251 8.24921 34.4705 7.71229 34.3101L7.56919 34.7892C6.9788 34.6128 6.41741 34.4293 5.88703 34.2392L6.05576 33.7685C5.4786 33.5616 4.9409 33.3474 4.44499 33.127L4.24189 33.5839C3.65954 33.325 3.13065 33.0565 2.65934 32.7794L2.91276 32.3484C2.37126 32.03 1.91922 31.7058 1.55814 31.3797L1.22301 31.7508C0.721647 31.298 0.366539 30.8282 0.172427 30.3455L0.636329 30.1589C0.544446 29.9304 0.5 29.7057 0.5 29.4826C0.5 29.2596 0.544446 29.0348 0.636329 28.8063L0.172427 28.6198C0.366539 28.1371 0.721648 27.6673 1.22301 27.2145L1.55814 27.5856C1.91923 27.2594 2.37126 26.9353 2.91276 26.6169L2.65934 26.1859C3.13065 25.9088 3.65954 25.6402 4.24189 25.3814L4.44499 25.8383C4.9409 25.6178 5.4786 25.4037 6.05576 25.1968L5.88703 24.7261C6.41741 24.536 6.9788 24.3525 7.56919 24.1761L7.71229 24.6552C8.24921 24.4948 8.81117 24.3402 9.39667 24.1919L9.27386 23.7072C9.82917 23.5665 10.4048 23.4315 10.9993 23.3027L11.1053 23.7913C11.6625 23.6705 12.237 23.5551 12.8275 23.4452L12.736 22.9536C13.3037 22.8481 13.8859 22.7477 14.4815 22.6528L14.5602 23.1466C15.1279 23.0561 15.7082 22.9706 16.3001 22.8904L16.233 22.3949C16.8094 22.3167 17.3967 22.2435 17.9941 22.1755L18.0507 22.6723C18.6245 22.6069 19.2077 22.5463 19.7997 22.4906L19.7529 21.9928C20.333 21.9383 20.9213 21.8885 21.5173 21.8436L21.5549 22.3421C22.1344 22.2985 22.7212 22.2595 23.3147 22.2254L23.286 21.7262C23.8698 21.6926 24.4601 21.6636 25.0563 21.6395L25.0765 22.1391C25.6579 22.1155 26.2449 22.0966 26.837 22.0823L26.825 21.5825C27.4104 21.5684 28.0007 21.5589 28.5954 21.5542L28.5994 22.0542C28.893 22.0518 29.1876 22.0507 29.4833 22.0507C29.7789 22.0507 30.0736 22.0518 30.3671 22.0542L30.3711 21.5542C30.9658 21.5589 31.5561 21.5684 32.1415 21.5825L32.1295 22.0823C32.7216 22.0966 33.3086 22.1155 33.89 22.1391L33.9103 21.6395C34.5064 21.6636 35.0967 21.6926 35.6806 21.7262L35.6518 22.2254C36.2454 22.2595 36.8322 22.2985 37.4116 22.3421L37.4492 21.8436C38.0452 21.8885 38.6336 21.9383 39.2137 21.9928L39.1669 22.4906C39.7589 22.5463 40.3421 22.6069 40.9158 22.6723L40.9725 22.1755C41.5698 22.2435 42.1571 22.3167 42.7336 22.3949L42.6664 22.8904C43.2584 22.9706 43.8386 23.0561 44.4064 23.1466L44.485 22.6528C45.0807 22.7477 45.6628 22.8481 46.2305 22.9536L46.1391 23.4452C46.7296 23.5551 47.304 23.6705 47.8613 23.7913L47.9672 23.3027C48.5618 23.4315 49.1374 23.5665 49.6927 23.7072L49.5699 24.1919C50.1554 24.3402 50.7173 24.4948 51.2542 24.6552L51.3974 24.1761C51.9877 24.3525 52.5491 24.536 53.0795 24.7261L52.9108 25.1968C53.4879 25.4037 54.0256 25.6178 54.5216 25.8383L54.7246 25.3814C55.307 25.6402 55.8359 25.9088 56.3072 26.1859L56.0538 26.6169C56.5953 26.9353 57.0473 27.2594 57.4084 27.5856L57.7435 27.2145Z" stroke="white" stroke-dasharray="1.79 1.79"/>
<path d="M47.2873 26.9089C47.317 27.476 47.337 28.0478 47.347 28.6236L46.8471 28.6323C46.852 28.9152 46.8545 29.199 46.8545 29.4839C46.8545 29.7687 46.852 30.0526 46.8471 30.3355L47.347 30.3442C47.337 30.92 47.317 31.4917 47.2873 32.0589L46.788 32.0327C46.7581 32.602 46.7184 33.1665 46.669 33.7259L47.167 33.7699C47.1164 34.3439 47.0557 34.9126 46.9853 35.4754L46.4891 35.4133C46.4182 35.9801 46.3374 36.5408 46.2469 37.0948L46.7403 37.1754C46.6473 37.7453 46.5441 38.3084 46.4311 38.8641L45.9411 38.7646C45.8274 39.324 45.7037 39.8758 45.5704 40.4193L46.056 40.5384C45.9185 41.0992 45.7708 41.6514 45.6133 42.1944L45.1331 42.0552C44.9738 42.6044 44.8045 43.1439 44.6255 43.673L45.0991 43.8332C44.9134 44.382 44.7175 44.92 44.5116 45.4464L44.046 45.2643C43.8381 45.796 43.6201 46.3154 43.3925 46.8219L43.8485 47.0269C43.6105 47.5567 43.3619 48.0728 43.1033 48.5745L42.6588 48.3454C42.3971 48.8533 42.1251 49.3457 41.8435 49.8217L42.2738 50.0763C41.9777 50.5768 41.671 51.0599 41.3541 51.5247L40.941 51.2431C40.6195 51.7147 40.2878 52.1665 39.9467 52.5975L40.3387 52.9079C39.977 53.3649 39.6043 53.7996 39.2215 54.2108L38.8556 53.8701C38.4688 54.2855 38.0721 54.6756 37.6663 55.0391L37.9999 55.4115C37.5653 55.8009 37.1198 56.1614 36.6643 56.4914L36.371 56.0866C35.9148 56.4171 35.4495 56.7153 34.9759 56.9799L35.2198 57.4164C34.7137 57.6991 34.1974 57.9455 33.6721 58.1536L33.488 57.6887C32.9739 57.8923 32.4517 58.0574 31.9225 58.1822L32.0373 58.6688C31.4806 58.8002 30.9156 58.8892 30.3435 58.9338L30.3046 58.4353C30.0333 58.4565 29.7604 58.4671 29.4858 58.4671C29.2113 58.4671 28.9383 58.4565 28.667 58.4353L28.6282 58.9338C28.0561 58.8892 27.4911 58.8002 26.9343 58.6688L27.0491 58.1822C26.52 58.0574 25.9978 57.8923 25.4837 57.6887L25.2996 58.1536C24.7743 57.9455 24.258 57.6991 23.7519 57.4164L23.9958 56.9799C23.5222 56.7153 23.0568 56.4171 22.6007 56.0866L22.3073 56.4914C21.8519 56.1614 21.4064 55.8009 20.9718 55.4115L21.3054 55.0391C20.8996 54.6756 20.5029 54.2855 20.1161 53.87L19.7501 54.2108C19.3674 53.7996 18.9947 53.3649 18.633 52.9079L19.025 52.5975C18.6838 52.1665 18.3521 51.7147 18.0307 51.2431L17.6175 51.5247C17.3007 51.0599 16.9939 50.5768 16.6979 50.0763L17.1282 49.8217C16.8466 49.3457 16.5746 48.8533 16.3128 48.3454L15.8684 48.5745C15.6098 48.0728 15.3612 47.5567 15.1231 47.0269L15.5792 46.8219C15.3516 46.3154 15.1336 45.796 14.9257 45.2643L14.46 45.4464C14.2542 44.92 14.0582 44.382 13.8726 43.8332L14.3462 43.673C14.1672 43.1439 13.9979 42.6044 13.8386 42.0552L13.3584 42.1944C13.2009 41.6514 13.0532 41.0992 12.9156 40.5384L13.4012 40.4193C13.2679 39.8758 13.1442 39.324 13.0305 38.7646L12.5405 38.8641C12.4276 38.3084 12.3244 37.7453 12.2313 37.1754L12.7248 37.0948C12.6343 36.5407 12.5534 35.9801 12.4825 35.4133L11.9864 35.4754C11.916 34.9126 11.8553 34.3439 11.8046 33.7699L12.3027 33.7259C12.2533 33.1665 12.2136 32.602 12.1837 32.0327L11.6844 32.0588C11.6547 31.4917 11.6346 30.92 11.6246 30.3441L12.1246 30.3355C12.1197 30.0526 12.1172 29.7687 12.1172 29.4839C12.1172 29.199 12.1197 28.9151 12.1246 28.6323L11.6246 28.6236C11.6346 28.0478 11.6547 27.476 11.6844 26.9089L12.1837 26.9351C12.2136 26.3658 12.2533 25.8012 12.3027 25.2419L11.8046 25.1979C11.8553 24.6238 11.916 24.0552 11.9864 23.4923L12.4825 23.5544C12.5534 22.9877 12.6343 22.427 12.7248 21.873L12.2313 21.7924C12.3244 21.2224 12.4276 20.6593 12.5406 20.1036L13.0305 20.2032C13.1442 19.6437 13.2679 19.092 13.4012 18.5485L12.9156 18.4294C13.0532 17.8686 13.2009 17.3163 13.3584 16.7733L13.8386 16.9126C13.9979 16.3634 14.1672 15.8239 14.3462 15.2948L13.8726 15.1345C14.0582 14.5858 14.2542 14.0478 14.46 13.5213L14.9257 13.7034C15.1336 13.1718 15.3516 12.6523 15.5792 12.1458L15.1231 11.9409C15.3612 11.4111 15.6098 10.8949 15.8684 10.3932L16.3128 10.6223C16.5746 10.1145 16.8466 9.62209 17.1282 9.14603L16.6979 8.89145C16.9939 8.391 17.3007 7.90785 17.6175 7.44302L18.0307 7.72464C18.3521 7.25304 18.6838 6.80123 19.025 6.37021L18.633 6.05988C18.9947 5.60287 19.3674 5.16817 19.7502 4.75701L20.1161 5.09771C20.5029 4.68226 20.8996 4.29218 21.3054 3.92864L20.9718 3.55623C21.4064 3.16686 21.8519 2.80637 22.3073 2.47632L22.6007 2.88119C23.0568 2.55067 23.5222 2.25243 23.9958 1.98786L23.7519 1.55136C24.258 1.26862 24.7743 1.02226 25.2996 0.814195L25.4837 1.27906C25.9978 1.07542 26.52 0.910383 27.0491 0.785556L26.9343 0.298914C27.4911 0.167574 28.0561 0.0785801 28.6282 0.0339745L28.6671 0.532461C28.9383 0.511308 29.2113 0.50061 29.4858 0.50061C29.7604 0.50061 30.0333 0.511308 30.3046 0.532462L30.3435 0.0339752C30.9156 0.0785814 31.4806 0.167575 32.0373 0.298916L31.9225 0.785558C32.4517 0.910386 32.9739 1.07542 33.488 1.27906L33.6721 0.814198C34.1974 1.02227 34.7137 1.26862 35.2198 1.55137L34.9759 1.98787C35.4495 2.25244 35.9149 2.55067 36.371 2.88119L36.6644 2.47632C37.1198 2.80637 37.5653 3.16686 37.9999 3.55624L37.6663 3.92864C38.0721 4.29218 38.4688 4.68226 38.8556 5.09771L39.2215 4.75701C39.6043 5.16817 39.977 5.60288 40.3387 6.05988L39.9467 6.37021C40.2878 6.80123 40.6195 7.25305 40.941 7.72464L41.3541 7.44303C41.671 7.90785 41.9777 8.391 42.2738 8.89146L41.8435 9.14603C42.1251 9.62209 42.3971 10.1145 42.6588 10.6223L43.1033 10.3932C43.3619 10.8949 43.6104 11.4111 43.8485 11.9409L43.3925 12.1458C43.6201 12.6524 43.8381 13.1718 44.046 13.7034L44.5116 13.5213C44.7175 14.0478 44.9134 14.5858 45.0991 15.1345L44.6255 15.2948C44.8045 15.8239 44.9738 16.3634 45.1331 16.9126L45.6133 16.7733C45.7708 17.3163 45.9185 17.8686 46.056 18.4294L45.5704 18.5485C45.7037 19.092 45.8274 19.6437 45.9411 20.2032L46.4311 20.1036C46.5441 20.6593 46.6473 21.2224 46.7403 21.7924L46.2469 21.873C46.3374 22.427 46.4182 22.9877 46.4891 23.5544L46.9853 23.4924C47.0557 24.0552 47.1164 24.6239 47.167 25.1979L46.669 25.2419C46.7184 25.8012 46.7581 26.3658 46.788 26.9351L47.2873 26.9089Z" stroke="white" stroke-dasharray="1.79 1.79"/>
<path d="M36.6107 26.8554C36.6231 27.4341 36.6314 28.0177 36.6356 28.6056L36.1356 28.6091C36.1376 28.8995 36.1387 29.1909 36.1387 29.4833C36.1387 29.7757 36.1376 30.0671 36.1356 30.3574L36.6356 30.361C36.6314 30.9488 36.6231 31.5324 36.6107 32.1112L36.1108 32.1005C36.0982 32.6861 36.0815 33.2668 36.0608 33.842L36.5605 33.86C36.5392 34.4491 36.5137 35.0325 36.4842 35.6097L35.9848 35.5841C35.9547 36.1714 35.9204 36.7521 35.8819 37.3256L36.3808 37.3591C36.3413 37.9487 36.2974 38.531 36.2494 39.1052L35.7511 39.0635C35.7021 39.6497 35.6487 40.2274 35.5911 40.7959L36.0885 40.8463C36.0287 41.4369 35.9643 42.0179 35.8956 42.5883L35.3991 42.5285C35.3284 43.1156 35.253 43.6915 35.1733 44.2551L35.6683 44.3252C35.585 44.9144 35.4968 45.4907 35.404 46.053L34.9106 45.9716C34.8137 46.5589 34.7118 47.1306 34.6052 47.6857L35.0962 47.7801C34.9829 48.3696 34.8643 48.9408 34.7407 49.4925L34.2528 49.3832C34.1219 49.9671 33.9855 50.5284 33.8439 51.0654L34.3273 51.1929C34.1717 51.7831 34.0097 52.3452 33.8419 52.8772L33.365 52.7268C33.1823 53.306 32.993 53.8471 32.7981 54.3479L33.264 54.5293C33.036 55.1148 32.7995 55.6489 32.5553 56.1275L32.1099 55.9003C31.8248 56.4592 31.5341 56.9294 31.2413 57.3091L31.6373 57.6144C31.218 58.1581 30.7821 58.5468 30.3334 58.764L30.1155 58.314C29.8999 58.4184 29.693 58.4665 29.4912 58.4665C29.2894 58.4665 29.0825 58.4184 28.8669 58.314L28.649 58.764C28.2004 58.5468 27.7644 58.1581 27.3452 57.6144L27.7411 57.3091C27.4483 56.9294 27.1576 56.4592 26.8725 55.9003L26.4271 56.1275C26.1829 55.6489 25.9464 55.1148 25.7184 54.5292L26.1844 54.3478C25.9894 53.8471 25.8001 53.306 25.6174 52.7268L25.1406 52.8772C24.9727 52.3452 24.8107 51.7831 24.6551 51.1929L25.1385 51.0654C24.9969 50.5284 24.8605 49.9671 24.7296 49.3832L24.2417 49.4925C24.1181 48.9408 23.9995 48.3696 23.8862 47.7801L24.3772 47.6857C24.2706 47.1306 24.1687 46.5589 24.0718 45.9716L23.5785 46.053C23.4857 45.4907 23.3975 44.9144 23.3141 44.3252L23.8091 44.2551C23.7294 43.6914 23.654 43.1156 23.5833 42.5285L23.0869 42.5883C23.0181 42.0179 22.9538 41.4369 22.8939 40.8463L23.3913 40.7959C23.3337 40.2274 23.2803 39.6497 23.2313 39.0635L22.733 39.1052C22.685 38.531 22.6411 37.9487 22.6016 37.3591L23.1005 37.3256C23.062 36.752 23.0277 36.1713 22.9976 35.5841L22.4983 35.6097C22.4687 35.0325 22.4432 34.4491 22.422 33.86L22.9216 33.842C22.9009 33.2668 22.8842 32.6861 22.8716 32.1005L22.3718 32.1112C22.3594 31.5324 22.351 30.9488 22.3469 30.3609L22.8468 30.3574C22.8448 30.0671 22.8438 29.7757 22.8438 29.4833C22.8438 29.1909 22.8448 28.8995 22.8468 28.6091L22.3469 28.6056C22.351 28.0177 22.3594 27.4341 22.3718 26.8554L22.8716 26.8661C22.8842 26.2804 22.9009 25.6997 22.9216 25.1245L22.422 25.1065C22.4432 24.5174 22.4687 23.934 22.4983 23.3568L22.9976 23.3824C23.0277 22.7952 23.062 22.2145 23.1005 21.6409L22.6016 21.6075C22.6411 21.0178 22.685 20.4356 22.733 19.8614L23.2313 19.9031C23.2803 19.3169 23.3337 18.7392 23.3913 18.1707L22.8939 18.1203C22.9538 17.5296 23.0181 16.9487 23.0869 16.3782L23.5833 16.438C23.654 15.8509 23.7294 15.2751 23.8091 14.7114L23.3141 14.6414C23.3975 14.0521 23.4857 13.4759 23.5785 12.9136L24.0718 12.995C24.1687 12.4076 24.2706 11.8359 24.3772 11.2808L23.8862 11.1865C23.9995 10.597 24.1181 10.0257 24.2417 9.47402L24.7296 9.58337C24.8605 8.99939 24.9969 8.43816 25.1385 7.90113L24.6551 7.77365C24.8107 7.18344 24.9727 6.62134 25.1406 6.0893L25.6174 6.23976C25.8001 5.66057 25.9894 5.11945 26.1844 4.61869L25.7184 4.43729C25.9464 3.85174 26.1829 3.31767 26.4271 2.83904L26.8725 3.06625C27.1576 2.50736 27.4483 2.0371 27.7411 1.65742L27.3452 1.35209C27.7644 0.808387 28.2004 0.419766 28.649 0.202533L28.8669 0.652553C29.0825 0.548169 29.2894 0.5 29.4912 0.5C29.693 0.5 29.9 0.548169 30.1155 0.652555L30.3334 0.202536C30.7821 0.41977 31.218 0.808392 31.6373 1.3521L31.2413 1.65743C31.5341 2.0371 31.8248 2.50736 32.1099 3.06625L32.5553 2.83904C32.7995 3.31768 33.036 3.85174 33.264 4.43729L32.7981 4.61869C32.993 5.11945 33.1823 5.66058 33.365 6.23976L33.8419 6.08931C34.0097 6.62135 34.1717 7.18345 34.3273 7.77365L33.8439 7.90114C33.9855 8.43816 34.1219 8.99939 34.2528 9.58337L34.7407 9.47403C34.8643 10.0257 34.9829 10.597 35.0962 11.1865L34.6052 11.2808C34.7118 11.8359 34.8137 12.4076 34.9106 12.995L35.404 12.9136C35.4968 13.4759 35.585 14.0521 35.6683 14.6414L35.1733 14.7114C35.253 15.2751 35.3284 15.8509 35.3991 16.438L35.8956 16.3782C35.9643 16.9487 36.0287 17.5296 36.0885 18.1203L35.5911 18.1707C35.6487 18.7392 35.7021 19.3169 35.7511 19.9031L36.2494 19.8614C36.2974 20.4356 36.3413 21.0178 36.3808 21.6075L35.8819 21.6409C35.9204 22.2145 35.9547 22.7952 35.9848 23.3824L36.4842 23.3568C36.5137 23.934 36.5392 24.5174 36.5605 25.1065L36.0608 25.1246C36.0815 25.6997 36.0982 26.2804 36.1108 26.8661L36.6107 26.8554Z" stroke="white" stroke-dasharray="1.79 1.79"/>
<circle cx="153.144" cy="29.0147" r="19.496" stroke="white" stroke-dasharray="1.79 1.79"/>
<path d="M59.9141 29.0776L127.472 29.0184" stroke="white" stroke-dasharray="1.79 1.79"/>
<path d="M78.5234 28.4508C81.0441 28.1605 83.3779 27.8917 85.588 27.6372C106.042 25.2818 125.548 17.7262 142.253 5.69019V5.69019" stroke="white" stroke-dasharray="1.79 1.79"/>
<path d="M78.5234 28.4508C79.8086 28.6019 81.0451 28.7474 82.2412 28.8881C104.733 31.5334 125.484 41.2346 144.529 53.4874V53.4874" stroke="white" stroke-dasharray="1.79 1.79"/>
</svg>
